# xmcd CD database file
#
# Track frame offsets:
#	150
#	20587
#	41100
#	61915
#	86852
#	107330
#	128737
#	147257
#	168949
#	186267
#	207607
#	230329
#	249204
#	265012
#
# Disc length: 3814 seconds
#
# Revision: 0
# Processed by: cddbd v1.4PL0 Copyright (c) Steve Scherf et al.
# Submitted via: CDex 1.51
#
DISCID=bf0ee40e
DTITLE=Paul Kuhn - Street of dreams
DYEAR=1900
DGENRE=Jazz
TTITLE0=street of dreams
TTITLE1=Manhattan
TTITLE2=please don't talk about me when i'm gone
TTITLE3=a ghost of a chance
TTITLE4=nancy
TTITLE5=come rain or come shine
TTITLE6=how long has this been going on
TTITLE7=sweet and lovely
TTITLE8='s wonderful
TTITLE9=my one and only love
TTITLE10=stars fell on alabama
TTITLE11=for all we know
TTITLE12=broadway
TTITLE13=i'll see you in my dreams
EXTD=
EXTT0=
EXTT1=
EXTT2=
EXTT3=
EXTT4=
EXTT5=
EXTT6=
EXTT7=
EXTT8=
EXTT9=
EXTT10=
EXTT11=
EXTT12=
EXTT13=
PLAYORDER=
